<svg width="14" height="14" viewBox="0 0 14 14" fill="none" xmlns="http://www.w3.org/2000/svg">
<path d="M0.699219 12.6136C0.798484 12.4051 0.965028 12.3324 1.19334 12.3434C1.44922 12.3566 1.70621 12.3434 1.96209 12.3489C2.04812 12.3511 2.06908 12.3279 2.06908 12.243C2.06577 11.5757 2.06687 10.9073 2.06687 10.2401V10.0978C2.454 10.186 2.79702 10.036 3.14665 9.93896C3.45106 9.85404 3.74886 9.74485 4.06651 9.70624C4.53526 9.64889 4.97974 9.75036 5.41982 9.89374C5.95144 10.0658 6.49078 10.1915 7.05769 10.175C7.52644 10.1618 7.98086 10.0724 8.41652 9.91249C9.17976 9.63235 9.93196 9.62793 10.6908 9.9158C10.8496 9.97646 11.0173 10.0151 11.1805 10.0636C11.3934 10.1265 11.6106 10.1441 11.8401 10.1C11.8401 10.164 11.8401 10.2202 11.8401 10.2765C11.8401 10.9316 11.8423 11.5879 11.8379 12.243C11.8379 12.3279 11.8577 12.3522 11.9437 12.35C12.2117 12.3434 12.4809 12.3555 12.75 12.3456C12.9772 12.3368 13.1283 12.4261 13.2077 12.639V12.7857C13.1338 13.0118 12.9728 13.0835 12.7423 13.0835C8.88306 13.0801 5.02386 13.0801 1.16576 13.0835C0.935249 13.0835 0.774219 13.0118 0.700322 12.7857V12.6147L0.699219 12.6136Z" fill="#9A9A9A"/>
<path d="M6.95266 7.39771C8.43502 7.39771 9.91628 7.39771 11.3986 7.39771C11.5089 7.39771 11.6181 7.40101 11.724 7.43631C11.9931 7.52454 12.1442 7.72749 12.1464 8.01094C12.1486 8.28337 12.1464 8.5569 12.1464 8.82933C12.1464 9.21977 11.8354 9.46903 11.4527 9.37418C11.1736 9.3047 10.8968 9.22197 10.6222 9.13374C9.90194 8.90322 9.18502 8.90653 8.4648 9.13705C8.10965 9.25065 7.7545 9.36756 7.38171 9.4172C6.82583 9.48999 6.28979 9.40396 5.75928 9.23411C5.40744 9.12161 5.0545 9.01242 4.68391 8.97381C4.14236 8.91866 3.62398 9.01793 3.11332 9.18447C2.90155 9.25396 2.68648 9.31683 2.4703 9.36977C2.07103 9.46793 1.76221 9.22528 1.76221 8.8183C1.76221 8.54918 1.76111 8.28116 1.76221 8.01204C1.76441 7.69329 1.97287 7.45616 2.28831 7.41094C2.36442 7.39991 2.44273 7.39771 2.51993 7.39771C3.99788 7.39771 5.47582 7.39771 6.95377 7.39771H6.95266Z" fill="#9A9A9A"/>
<path d="M7.69062 5.16017C7.69062 5.58701 7.68841 6.01495 7.69282 6.44179C7.69282 6.5212 7.67297 6.54326 7.59246 6.54216C7.16562 6.53774 6.73767 6.53885 6.31083 6.54216C6.23914 6.54216 6.21378 6.52782 6.21488 6.44951C6.21819 5.59914 6.21488 4.74767 6.21819 3.8973C6.21819 3.68112 6.35275 3.55318 6.57223 3.55097C6.82812 3.54876 7.0851 3.54876 7.34098 3.55097C7.55826 3.55318 7.68951 3.68332 7.69062 3.90171C7.69282 4.32083 7.69062 4.73994 7.69062 5.15906V5.16017Z" fill="#9A9A9A"/>
<path d="M3.26283 5.16695C3.26283 4.75555 3.26283 4.34415 3.26283 3.93386C3.26283 3.67908 3.38856 3.55445 3.64665 3.55445C3.8904 3.55445 4.13526 3.55334 4.37901 3.55445C4.60621 3.55555 4.73746 3.68128 4.73857 3.90849C4.74188 4.75886 4.73857 5.61033 4.74077 6.4607C4.74077 6.52247 4.72533 6.54453 4.66026 6.54453C4.22018 6.54232 3.78121 6.54122 3.34114 6.54453C3.25952 6.54453 3.26172 6.50592 3.26172 6.44857C3.26283 6.02063 3.26172 5.59379 3.26172 5.16585L3.26283 5.16695Z" fill="#9A9A9A"/>
<path d="M10.6431 5.17501C10.6431 5.59854 10.6409 6.02207 10.6453 6.4456C10.6453 6.52722 10.6222 6.54486 10.5438 6.54486C10.117 6.54156 9.68906 6.54156 9.26112 6.54486C9.18943 6.54486 9.16406 6.53053 9.16406 6.45222C9.16737 5.60516 9.16406 4.7592 9.16737 3.91214C9.16737 3.67941 9.29972 3.55589 9.53575 3.55478C9.78392 3.55368 10.0321 3.55368 10.2802 3.55478C10.5119 3.55589 10.642 3.68603 10.6431 3.91875C10.6442 4.33787 10.6431 4.75699 10.6431 5.17721V5.17501Z" fill="#9A9A9A"/>
<path d="M3.26087 2.23886C3.25646 2.04916 3.31712 1.91018 3.37337 1.77121C3.49249 1.48114 3.64249 1.20761 3.80021 0.937388C3.89837 0.76974 4.098 0.76202 4.19396 0.925256C4.39028 1.25724 4.57889 1.59474 4.70021 1.96202C4.83477 2.37122 4.61087 2.79254 4.20719 2.90725C3.7958 3.02306 3.38109 2.78041 3.27741 2.36019C3.26528 2.30945 3.26197 2.25651 3.25977 2.23776L3.26087 2.23886Z" fill="#9A9A9A"/>
<path d="M10.6514 2.20947C10.6271 2.51609 10.4892 2.7422 10.2124 2.86793C9.93005 2.99477 9.65983 2.95727 9.426 2.75764C9.19439 2.558 9.10615 2.30212 9.1977 2.00102C9.31571 1.61389 9.51645 1.26425 9.71939 0.917927C9.80321 0.775648 10.0017 0.767927 10.0856 0.909104C10.3039 1.27528 10.5146 1.64587 10.6315 2.06058C10.6459 2.11021 10.6459 2.16425 10.6514 2.21168V2.20947Z" fill="#9A9A9A"/>
<path d="M6.211 2.20695C6.20879 2.05254 6.26725 1.91247 6.3246 1.7746C6.44372 1.48563 6.59372 1.21099 6.75254 0.941876C6.85181 0.774229 7.05034 0.766508 7.1474 0.930847C7.34262 1.26283 7.53122 1.60033 7.65365 1.96761C7.78049 2.34923 7.59409 2.74298 7.22791 2.88857C6.86394 3.03306 6.45034 2.86872 6.28048 2.51357C6.23416 2.41651 6.2121 2.31394 6.211 2.20695Z" fill="#9A9A9A"/>
</svg>
