<svg width="14" height="10" viewBox="0 0 14 10" fill="none" xmlns="http://www.w3.org/2000/svg">
<g clip-path="url(#clip0_13453_3444)">
<path d="M13.5203 2.91531V8.86914C13.5006 8.87218 13.4961 8.88583 13.4901 8.90252C13.2465 9.57164 12.8925 9.81896 12.1829 9.81896C8.78349 9.81896 5.38405 9.81896 1.9831 9.81896C1.93318 9.81896 1.88325 9.81896 1.83333 9.81896C1.29323 9.7962 0.871135 9.46695 0.715308 8.95259C0.706231 8.92376 0.712282 8.8828 0.669922 8.87066V2.91531C0.713795 2.86676 0.734976 2.92442 0.757669 2.93959C2.48538 4.08969 4.21157 5.24131 5.93777 6.39293C6.7048 6.90577 7.48393 6.90577 8.25247 6.39293C9.97867 5.24131 11.7033 4.08969 13.4311 2.93959C13.4553 2.9229 13.4764 2.8698 13.5203 2.9138V2.91531Z" fill="#9A9A9A"/>
<path d="M0.669922 1.58312C0.669922 1.43291 0.669922 1.28118 0.669922 1.13097C0.689589 1.12794 0.694128 1.11428 0.700179 1.09759C0.940727 0.434539 1.30079 0.181152 2.00731 0.181152C5.40977 0.181152 8.81375 0.181152 12.2162 0.181152C12.2661 0.181152 12.3161 0.181152 12.366 0.18267C12.8546 0.214533 13.2087 0.448195 13.4174 0.892759C13.4598 0.983796 13.4855 1.08394 13.5188 1.18104V1.58312C13.4855 1.59071 13.4916 1.62106 13.4855 1.64382C13.4053 1.93969 13.2329 2.16576 12.9787 2.33418C11.2449 3.48883 9.51421 4.64804 7.77894 5.80118C7.32054 6.10615 6.85457 6.10008 6.39617 5.79511C4.71385 4.67232 3.03153 3.54497 1.34467 2.42673C1.02847 2.21735 0.774311 1.97914 0.689589 1.59526C0.689589 1.59071 0.677486 1.58768 0.669922 1.58312Z" fill="#9A9A9A"/>
</g>
<defs>
<clipPath id="clip0_13453_3444">
<rect width="12.8504" height="9.6378" fill="white" transform="translate(0.669922 0.181152)"/>
</clipPath>
</defs>
</svg>
