<svg width="14" height="12" viewBox="0 0 14 12" fill="none" xmlns="http://www.w3.org/2000/svg">
<path d="M13.8233 2.04341V9.66008C13.8133 9.69008 13.8033 9.71675 13.7967 9.74675C13.6467 10.4967 13.0067 11.0334 12.2467 11.0367C8.69 11.0367 5.13333 11.0367 1.57667 11.0367C1.05333 11.0367 0.633333 10.8101 0.313333 10.3967C0.143333 10.1801 0.0666667 9.92341 0 9.66008C0 7.12008 0 4.58341 0 2.04341C0.01 2.01341 0.02 1.98675 0.0266666 1.95675C0.176667 1.21008 0.816667 0.670081 1.57667 0.666748C5.13333 0.666748 8.69 0.666748 12.25 0.666748C12.7733 0.666748 13.1933 0.893415 13.5133 1.30675C13.6833 1.52675 13.76 1.78008 13.8267 2.04341H13.8233ZM4.30333 8.73341C4.43 8.73341 4.55667 8.73341 4.68 8.73341C5.25667 8.73341 5.83 8.73341 6.40667 8.73341C6.74 8.73341 6.90667 8.56341 6.91 8.23675C6.91 8.17008 6.91 8.10341 6.91 8.03341C6.90667 7.13675 6.22667 6.43675 5.33 6.42341C4.65667 6.41341 3.98 6.41675 3.30667 6.42341C2.81333 6.43008 2.4 6.62675 2.08333 7.01008C1.79667 7.35675 1.71 7.76675 1.72333 8.20675C1.73667 8.57008 1.88667 8.73008 2.25333 8.73008C2.93667 8.73008 3.62 8.73008 4.30333 8.73008V8.73341ZM2.88 4.40341C2.87667 5.20008 3.52 5.84675 4.31333 5.85008C5.10333 5.85008 5.74333 5.21341 5.75333 4.42341C5.76 3.62675 5.12333 2.98008 4.32667 2.97008C3.54 2.96008 2.88333 3.61008 2.88 4.40675V4.40341ZM10.07 4.12341C10.5867 4.12341 11.1033 4.12341 11.62 4.12341C11.8967 4.12341 12.09 3.94675 12.0933 3.69675C12.0967 3.44341 11.9 3.26008 11.6167 3.26008C10.5933 3.26008 9.56667 3.26008 8.54333 3.26008C8.25667 3.26008 8.06333 3.43341 8.06333 3.69341C8.06333 3.95008 8.25667 4.12341 8.54333 4.12341C9.05 4.12341 9.56 4.12341 10.0667 4.12341H10.07ZM10.08 6.42341C10.61 6.42341 11.14 6.42341 11.67 6.42341C11.8767 6.42341 12.04 6.28008 12.0867 6.08341C12.1267 5.90675 12.04 5.69675 11.8667 5.62008C11.78 5.58008 11.6767 5.56341 11.58 5.56341C10.5767 5.56008 9.57667 5.56341 8.57333 5.56341C8.50667 5.56341 8.43667 5.56675 8.37333 5.58341C8.2 5.62675 8.07667 5.78675 8.06667 5.96675C8.05333 6.23008 8.23667 6.42341 8.51667 6.42675C9.03667 6.42675 9.56 6.42675 10.08 6.42675V6.42341ZM10.0833 7.87008C9.57 7.87008 9.06 7.87008 8.54667 7.87008C8.46333 7.87008 8.37333 7.88341 8.3 7.91675C8.11667 7.99675 8.03 8.20675 8.07667 8.40341C8.12333 8.59675 8.3 8.73341 8.53 8.73341C9.56333 8.73341 10.5967 8.73341 11.63 8.73341C11.7133 8.73341 11.8 8.71008 11.8733 8.67341C12.0433 8.58675 12.1267 8.38341 12.0833 8.20341C12.0367 8.01008 11.8767 7.87341 11.6767 7.87341C11.1467 7.87008 10.6167 7.87341 10.0867 7.87341L10.0833 7.87008Z" fill="#9A9A9A"/>
</svg>
