<svg width="11" height="16" viewBox="0 0 11 16" fill="none" xmlns="http://www.w3.org/2000/svg">
<path d="M5.38875 0.399902C5.7137 0.453717 6.04767 0.498563 6.37262 0.570317C7.27526 0.785577 8.0425 1.23404 8.6924 1.87982C9.43256 2.60632 9.90193 3.4853 10.1005 4.49882C10.3352 5.70069 10.1547 6.84874 9.55893 7.92504C8.18692 10.4005 6.80589 12.8671 5.42485 15.3426C5.38875 15.4053 5.35264 15.4681 5.30751 15.513C5.14503 15.6654 4.91937 15.6116 4.80203 15.3964C4.47708 14.8223 4.16116 14.2483 3.83621 13.6743C2.78915 11.7908 1.73306 9.90723 0.686004 8.0237C0.252738 7.25235 0 6.42719 0 5.53924C0 4.45397 0.29787 3.44942 0.938743 2.56147C1.59767 1.64662 2.4642 1.00084 3.53834 0.660009C3.89939 0.543409 4.28753 0.507533 4.65761 0.435779C4.70274 0.42681 4.7569 0.417841 4.80203 0.408872C5.00061 0.408872 5.19919 0.408872 5.39777 0.408872L5.38875 0.399902ZM5.09088 2.92921C3.69179 2.92921 2.54544 4.0683 2.53641 5.45852C2.53641 6.84874 3.67373 7.98783 5.08185 7.9968C6.48996 7.9968 7.64534 6.85771 7.63631 5.45852C7.63631 4.05933 6.48996 2.92921 5.08185 2.92921H5.09088Z" fill="#A5A5A5"/>
</svg>
