<svg width="10" height="16" viewBox="0 0 10 16" fill="none" xmlns="http://www.w3.org/2000/svg">
<path d="M9.24177 0.703943C9.05711 0.470535 8.80483 0.364321 8.53304 0.285645H1.65376C1.64725 0.309248 1.62775 0.309248 1.60824 0.314493C1.03215 0.473158 0.714844 0.888834 0.714844 1.49727C0.714844 5.90449 0.714844 10.313 0.714844 14.7215C0.714844 15.4441 1.196 15.9279 1.91124 15.9279C4.04135 15.9292 6.17145 15.9279 8.30286 15.9279C8.4251 15.9279 8.54604 15.9187 8.66178 15.8846C9.19626 15.7299 9.50056 15.2972 9.50056 14.6901C9.50056 11.3817 9.50056 8.07203 9.50056 4.76367C9.50056 3.674 9.50056 2.58432 9.50056 1.49596C9.50056 1.20223 9.42513 0.937351 9.24047 0.702632L9.24177 0.703943ZM3.58229 0.980624C4.09597 0.980624 4.61094 0.980624 5.12461 0.980624C5.62917 0.980624 6.13244 0.980624 6.63701 0.980624C6.80346 0.980624 6.86328 1.05274 6.86588 1.24419C6.86848 1.43826 6.79956 1.52743 6.63701 1.52874C5.61877 1.52874 4.60053 1.52874 3.58229 1.52874C3.41974 1.52874 3.34952 1.43695 3.35212 1.24419C3.35472 1.05799 3.42104 0.980624 3.58229 0.980624ZM5.1194 14.8002C4.72147 14.8042 4.39376 14.4829 4.38726 14.0829C4.38076 13.6883 4.70847 13.3565 5.1064 13.3539C5.50433 13.3526 5.83204 13.6791 5.83074 14.0764C5.83074 14.4685 5.50693 14.795 5.1194 14.7989V14.8002ZM8.65398 7.26428C8.65398 8.89421 8.65268 10.5228 8.65658 12.1527C8.65658 12.2839 8.63057 12.3206 8.49402 12.3206C6.23647 12.3153 3.98023 12.3153 1.72268 12.3206C1.58743 12.3206 1.55882 12.2878 1.55882 12.1541C1.56272 8.89027 1.56272 5.62649 1.55882 2.36271C1.55882 2.23552 1.58743 2.20667 1.71358 2.20667C3.97633 2.21061 6.23778 2.21061 8.50053 2.20667C8.62407 2.20667 8.65658 2.2329 8.65658 2.3614C8.65138 3.99526 8.65268 5.63043 8.65268 7.26428H8.65398Z" fill="#9A9A9A"/>
</svg>
