<svg width="14" height="14" viewBox="0 0 14 14" fill="none" xmlns="http://www.w3.org/2000/svg">
<path d="M10.4066 13.6099C10.1319 13.5498 9.85714 13.5069 9.58243 13.4382C8.88708 13.2579 8.23465 12.9575 7.61656 12.5969C5.96831 11.6526 4.56902 10.4164 3.31566 8.99137C2.50871 8.07282 1.79619 7.077 1.25536 5.97817C0.920558 5.29999 0.654434 4.59605 0.568588 3.8406C0.508496 3.36845 0.525665 2.89629 0.75745 2.45848C0.834711 2.32112 0.929142 2.19235 1.03216 2.08075C1.40988 1.68586 1.80477 1.30814 2.19108 0.921832C2.71474 0.389585 3.53028 0.432509 4.02819 0.921832C4.62911 1.50559 5.22145 2.09792 5.81379 2.69885C6.32028 3.21392 6.32028 3.99512 5.81379 4.46728C5.70219 4.57029 5.56483 4.64755 5.42748 4.70765C5.06693 4.845 4.79222 5.05962 4.6377 5.42017C4.53468 5.66054 4.51751 5.90091 4.58619 6.15845C4.75788 6.81946 5.12702 7.36888 5.56483 7.87537C6.09708 8.48488 6.698 8.99137 7.4277 9.35192C7.69382 9.48069 7.96853 9.60088 8.26899 9.59229C8.84416 9.56654 9.23905 9.29183 9.44508 8.751C9.53951 8.50205 9.69403 8.29602 9.92582 8.15866C10.4151 7.8582 11.0246 7.91829 11.4539 8.33894C12.072 8.93986 12.6729 9.54078 13.2738 10.1503C13.7631 10.6568 13.746 11.4552 13.2481 11.9616C12.8532 12.3565 12.4583 12.7514 12.0634 13.1463C11.7801 13.4296 11.4367 13.567 11.0504 13.6185C11.0161 13.6185 10.9903 13.6356 10.956 13.6442H10.4151L10.4066 13.6099Z" fill="#9A9A9A"/>
</svg>
